<svg xmlns="http://www.w3.org/2000/svg" width="329.555" height="171.783" viewBox="133.473 286.658 329.555 171.783"><path fill="#F26D5B" d="M231.427 424.2v-30.229l43.135-19.416-43.135 49.645z"/><path fill="#ED2324" d="M232.066 421.991c.349 0 .581.291.581.639s-.291.639-.581.639c-.349 0-.581-.291-.581-.639s.232-.639.581-.639z"/><path fill="#FFF" d="M137.019 420.189l-3.546 34.298c0 .93.523 1.686 1.511 2.325.988.639 2.5.93 4.476.93h2.965c4.186 0 6.395-1.105 6.627-3.372l3.372-33.484c2.674-3.546 5.697-5.348 9.127-5.348a8.15 8.15 0 0 1 2.732.465c.814.291 1.337.465 1.57.465.756 0 1.686-1.163 2.674-3.546s1.511-4.418 1.511-6.162c0-3.197-1.628-4.825-4.941-4.825-4.592 0-8.72 2.674-12.266 7.964-.116-1.686-.291-2.849-.349-3.604-.116-.756-.407-1.453-.872-2.151s-1.163-1.046-2.093-1.046c-3.488 0-6.395.349-8.72 1.046-2.325.698-3.488 1.628-3.488 2.732l.233 5.871c-.116 2.268-.232 4.768-.523 7.442zm51.273 15.405c3.43.465 7.092.756 10.929.756 5.93 0 11.22-1.57 15.754-4.767 4.534-3.197 6.802-7.964 6.802-14.417 0-3.255-1.279-6.453-3.779-9.534-1.337-1.686-3.43-3.023-6.278-4.069-2.848-1.046-6.278-1.57-10.29-1.57-8.487 0-15.405 2.732-20.812 8.139-5.406 5.464-8.08 13.836-8.08 25.23 0 7.267 2.035 12.905 6.162 16.975 4.069 4.069 10.29 6.046 18.661 6.046 3.837 0 7.674-.581 11.452-1.744 3.779-1.163 6.046-3.023 6.802-5.581.116-.465.291-1.686.523-3.604.233-1.918.291-3.372.291-4.418 0-.988-.291-1.453-.814-1.453-.233 0-1.105.407-2.674 1.163-1.57.756-3.604 1.511-6.162 2.325-2.5.756-5.232 1.163-8.197 1.163s-5.348-.756-7.208-2.267c-1.861-1.571-2.907-4.303-3.082-8.373zm18.37-16.451c0 1.802-.988 3.43-2.965 4.767-1.977 1.337-5.174 2.035-9.65 2.035h-5.058c1.744-7.79 5.523-11.743 11.336-11.743 4.244.058 6.337 1.685 6.337 4.941zm93.129 37.844c1.918-.93 2.965-2.267 3.255-4.011.465-2.849.756-4.825.756-5.871s-.291-1.57-.814-1.57c-.058 0-.465.116-1.163.291a5.915 5.915 0 0 1-1.918.291c-2.093 0-3.139-1.163-3.139-3.43 0-.698 2.151-20.986 6.395-60.807 0-.93-.523-1.686-1.511-2.325-.988-.639-2.5-.93-4.476-.93h-2.965c-4.186 0-6.395 1.105-6.627 3.372l-2.616 24.3c-3.488-2.849-7.267-4.302-11.22-4.302-7.208 0-13.08 3.081-17.614 9.301-4.534 6.22-6.802 14.359-6.802 24.358 0 7.267 1.628 12.847 4.883 16.8 3.255 3.953 7.79 5.93 13.661 5.93 5.871 0 10.464-2.674 13.836-8.08 1.395 5.348 5.406 8.08 12.092 8.08a13.338 13.338 0 0 0 5.987-1.397zm-15.812-40.228c-.349 3.546-.814 8.08-1.337 13.545-.581 5.464-.872 8.546-.93 9.243-2.616 4.127-5.348 6.162-8.313 6.162-5.464 0-8.197-3.488-8.197-10.464 0-6.976 1.046-12.208 3.197-15.754 2.151-3.546 5.116-5.29 8.952-5.29 2.268.059 4.477.873 6.628 2.558zm73.887 40.228c1.918-.93 2.965-2.267 3.255-4.011.465-2.849.756-4.825.756-5.871s-.291-1.57-.814-1.57c-.058 0-.465.116-1.163.291a5.915 5.915 0 0 1-1.918.291c-2.093 0-3.139-1.105-3.139-3.372 0-.698.639-7.092 1.977-19.242l1.918-18.196c0-1.744-2.035-2.616-6.104-2.616h-1.279c-2.5.058-4.127.407-4.825.93-.698.581-1.337 1.86-1.977 3.953-3.895-3.72-8.139-5.523-12.731-5.523-6.86 0-12.44 3.081-16.8 9.301-4.36 6.22-6.511 14.359-6.511 24.358 0 7.267 1.511 12.847 4.592 16.8s7.208 5.93 12.382 5.93c2.965 0 5.639-.756 8.139-2.209 2.5-1.453 4.534-3.372 6.162-5.755 1.395 5.232 5.406 7.848 12.092 7.848a12.393 12.393 0 0 0 5.988-1.337zm-33.601-21.625c0-6.976.988-12.208 2.907-15.754 1.918-3.546 4.651-5.29 8.255-5.29 2.442 0 4.767.93 6.918 2.849-.698 3.546-1.105 5.871-1.279 6.86-.116.988-.639 6.278-1.453 15.754-2.616 4.069-5.348 6.046-8.197 6.046-4.768-.001-7.151-3.489-7.151-10.465zm71.096-20.172c1.744.698 2.674 1.046 2.849 1.046.988 0 2.151-1.046 3.546-3.081 1.337-2.035 2.035-3.662 2.035-4.767 0-2.209-1.628-3.837-4.825-4.883-3.197-.988-6.743-1.511-10.522-1.511-6.162 0-11.162 1.686-14.998 4.999-3.837 3.372-5.755 8.139-5.755 14.359 0 2.849.639 5.232 1.918 7.15 1.279 1.918 2.849 3.314 4.651 4.186a54.235 54.235 0 0 0 5.464 2.267c1.802.639 3.372 1.395 4.651 2.325 1.279.93 1.918 2.151 1.918 3.604 0 3.488-2.325 5.232-6.918 5.232-3.197 0-6.453-.872-9.65-2.616-1.105-.639-1.744-.93-1.918-.93-1.57 0-2.325 3.139-2.325 9.418 0 2.558 2.442 4.418 7.325 5.523 2.5.581 5.116.814 7.79.814 6.453 0 11.685-1.802 15.638-5.464 4.011-3.604 5.988-8.662 5.988-15.056 0-3.546-.988-6.453-2.965-8.662-1.977-2.209-4.069-3.721-6.395-4.476-2.325-.756-4.476-1.628-6.395-2.674-1.977-1.046-2.965-2.325-2.965-3.779 0-2.79 1.977-4.186 5.988-4.186 2.208.115 4.126.464 5.87 1.162zm57.668 43.193c2.093 0 4.069-.465 5.988-1.395 1.918-.93 2.965-2.267 3.255-4.011.465-2.849.756-4.825.756-5.871s-.291-1.57-.814-1.57c-.058 0-.465.116-1.163.291a5.915 5.915 0 0 1-1.918.291c-2.093 0-3.139-1.163-3.139-3.43l2.616-27.439c0-8.836-4.592-13.312-13.836-13.312-2.79 0-5.581.698-8.429 2.035-2.79 1.337-5.174 3.081-7.034 5.058l2.849-27.206c0-.93-.523-1.686-1.511-2.325-.988-.639-2.5-.93-4.476-.93h-2.965c-4.186 0-6.395 1.105-6.627 3.372l-7.674 72.492c0 .93.523 1.686 1.511 2.325.988.639 2.5.93 4.476.93h2.965c4.186 0 6.395-1.105 6.627-3.372l3.546-33.717c2.79-3.953 5.813-5.988 9.011-5.988 3.779 0 5.697 1.744 5.697 5.232l-2.442 25.113c.058 9.008 4.302 13.427 12.731 13.427z"/><path fill="#F26D5B" d="M232.531 286.658c29.88 0 54.064 24.183 54.064 53.947 0 29.822-24.183 53.947-54.064 53.947s-54.064-24.183-54.064-53.947c.001-29.764 24.184-53.947 54.064-53.947z"/><path fill="#FFF" d="M199.744 349.035h7.964a3.499 3.499 0 0 1 3.488 3.488v7.906a3.499 3.499 0 0 1-3.488 3.488h-7.964a3.499 3.499 0 0 1-3.488-3.488v-7.906a3.498 3.498 0 0 1 3.488-3.488zm18.428-17.44h7.906a3.499 3.499 0 0 1 3.488 3.488v25.346a3.499 3.499 0 0 1-3.488 3.488h-7.906a3.499 3.499 0 0 1-3.488-3.488v-25.346a3.498 3.498 0 0 1 3.488-3.488zm18.37 9.592h7.964a3.499 3.499 0 0 1 3.488 3.488v15.754a3.499 3.499 0 0 1-3.488 3.488h-7.964a3.499 3.499 0 0 1-3.488-3.488v-15.754a3.498 3.498 0 0 1 3.488-3.488zm18.835-22.73h7.906a3.499 3.499 0 0 1 3.488 3.488v38.484a3.499 3.499 0 0 1-3.488 3.488h-7.906a3.499 3.499 0 0 1-3.488-3.488v-38.484a3.498 3.498 0 0 1 3.488-3.488z"/></svg>